<?xml version="1.0" standalone="no"?>
<!DOCTYPE svg PUBLIC "-//W3C//DTD SVG 20010904//EN"
 "http://www.w3.org/TR/2001/REC-SVG-20010904/DTD/svg10.dtd">
<svg version="1.0" xmlns="http://www.w3.org/2000/svg"
 width="64.000000pt" height="64.000000pt" viewBox="0 0 64.000000 64.000000"
 preserveAspectRatio="xMidYMid meet">

<g transform="translate(0.000000,64.000000) scale(0.100000,-0.100000)"
fill="#000000" stroke="none">
<path d="M241 419 c-26 -26 -31 -38 -31 -79 0 -41 5 -53 31 -79 26 -26 38 -31
79 -31 41 0 53 5 79 31 26 26 31 38 31 79 0 41 -5 53 -31 79 -26 26 -38 31
-79 31 -41 0 -53 -5 -79 -31z"/>
<path d="M219 160 c-45 -24 -99 -84 -99 -110 0 -19 8 -20 200 -20 192 0 200 1
200 20 0 27 -55 87 -101 111 -51 26 -150 25 -200 -1z"/>
</g>
</svg>
